<svg width="150" height="150" viewBox="0 0 150 150" fill="none" xmlns="http://www.w3.org/2000/svg">
<rect width="150" height="150" rx="40" fill="#1E1E1E"/>
<path d="M72.66 53.34C69.3 51.8467 66.5 50.8667 64.26 50.4C62.1133 49.84 60.0133 49.56 57.96 49.56C55.3467 49.56 52.5933 50.3533 49.7 51.94C46.8067 53.5267 44.24 55.4867 42 57.82V46.9C44.24 44.4733 46.76 42.6533 49.56 41.44C52.36 40.1333 55.44 39.48 58.8 39.48C61.5067 39.48 64.1667 39.76 66.78 40.32C69.4867 40.88 72.9867 42.0933 77.28 43.96C80.64 45.4533 83.3933 46.48 85.54 47.04C87.78 47.5067 89.88 47.74 91.84 47.74C94.5467 47.74 97.3467 46.9467 100.24 45.36C103.133 43.7733 105.7 41.8133 107.94 39.48V50.26C105.7 52.6867 103.18 54.5533 100.38 55.86C97.58 57.1667 94.5 57.82 91.14 57.82C88.5267 57.82 85.82 57.54 83.02 56.98C80.3133 56.3267 76.86 55.1133 72.66 53.34Z" fill="white"/>
<path d="M72.66 77.66C74.1533 74.3 75.1333 71.5 75.6 69.26C76.16 67.1133 76.44 65.0133 76.44 62.96C76.44 60.3467 75.6467 57.5933 74.06 54.7C72.4733 51.8067 70.5133 49.24 68.18 47L79.1 47C81.5267 49.24 83.3467 51.76 84.56 54.56C85.8667 57.36 86.52 60.44 86.52 63.8C86.52 66.5067 86.24 69.1667 85.68 71.78C85.12 74.4867 83.9067 77.9867 82.04 82.28C80.5467 85.64 79.52 88.3933 78.96 90.54C78.4933 92.78 78.26 94.88 78.26 96.84C78.26 99.5467 79.0533 102.347 80.64 105.24C82.2267 108.133 84.1867 110.7 86.52 112.94L75.74 112.94C73.3133 110.7 71.4467 108.18 70.14 105.38C68.8333 102.58 68.18 99.5 68.18 96.14C68.18 93.5267 68.46 90.82 69.02 88.02C69.6733 85.3133 70.8867 81.86 72.66 77.66Z" fill="white"/>
</svg>
