<svg width="159" height="183" viewBox="0 0 159 183" fill="none" xmlns="http://www.w3.org/2000/svg">
<rect x="9" y="33" width="150" height="150" rx="40" fill="#1E1E1E"/>
<path d="M79.66 88.34C76.3 86.8467 73.5 85.8667 71.26 85.4C69.1133 84.84 67.0133 84.56 64.96 84.56C62.3467 84.56 59.5933 85.3533 56.7 86.94C53.8067 88.5267 51.24 90.4867 49 92.82V81.9C51.24 79.4733 53.76 77.6533 56.56 76.44C59.36 75.1333 62.44 74.48 65.8 74.48C68.5067 74.48 71.1667 74.76 73.78 75.32C76.4867 75.88 79.9867 77.0933 84.28 78.96C87.64 80.4533 90.3933 81.48 92.54 82.04C94.78 82.5067 96.88 82.74 98.84 82.74C101.547 82.74 104.347 81.9467 107.24 80.36C110.133 78.7733 112.7 76.8133 114.94 74.48V85.26C112.7 87.6867 110.18 89.5533 107.38 90.86C104.58 92.1667 101.5 92.82 98.14 92.82C95.5267 92.82 92.82 92.54 90.02 91.98C87.3133 91.3267 83.86 90.1133 79.66 88.34Z" fill="white"/>
<path d="M88.34 119.34C86.8467 122.7 85.8667 125.5 85.4 127.74C84.84 129.887 84.56 131.987 84.56 134.04C84.56 136.653 85.3533 139.407 86.94 142.3C88.5267 145.193 90.4867 147.76 92.82 150H81.9C79.4733 147.76 77.6533 145.24 76.44 142.44C75.1333 139.64 74.48 136.56 74.48 133.2C74.48 130.493 74.76 127.833 75.32 125.22C75.88 122.513 77.0933 119.013 78.96 114.72C80.4533 111.36 81.48 108.607 82.04 106.46C82.5067 104.22 82.74 102.12 82.74 100.16C82.74 97.4533 81.9467 94.6533 80.36 91.76C78.7733 88.8667 76.8133 86.3 74.48 84.06H85.26C87.6867 86.3 89.5533 88.82 90.86 91.62C92.1667 94.42 92.82 97.5 92.82 100.86C92.82 103.473 92.54 106.18 91.98 108.98C91.3267 111.687 90.1133 115.14 88.34 119.34Z" fill="white"/>
</svg>
